<mxfile host="Electron" agent="Mozilla/5.0 (Windows NT 10.0; Win64; x64) AppleWebKit/537.36 (KHTML, like Gecko) draw.io/28.0.6 Chrome/138.0.7204.100 Electron/37.2.3 Safari/537.36" version="28.0.6">
  <diagram name="PÃ¡gina-1" id="50MQZrLXcKWJrY5wgc9H">
    <mxGraphModel dx="2066" dy="1201" grid="1" gridSize="10" guides="1" tooltips="1" connect="1" arrows="1" fold="1" page="1" pageScale="1" pageWidth="827" pageHeight="1169" math="0" shadow="0">
      <root>
        <mxCell id="0" />
        <mxCell id="1" parent="0" />
        <mxCell id="7gWxnwFCbXSUsCtXN8eq-1" value="&lt;font style=&quot;font-size: 36px;&quot;&gt;&lt;b&gt;High Level Architecture&lt;/b&gt;&lt;/font&gt;" style="text;html=1;align=center;verticalAlign=middle;whiteSpace=wrap;rounded=0;" vertex="1" parent="1">
          <mxGeometry x="204" y="60" width="420" height="30" as="geometry" />
        </mxCell>
        <mxCell id="7gWxnwFCbXSUsCtXN8eq-2" value="" style="rounded=0;whiteSpace=wrap;html=1;strokeColor=light-dark(#757575, #ededed);dashed=1;" vertex="1" parent="1">
          <mxGeometry x="14" y="150" width="140" height="490" as="geometry" />
        </mxCell>
        <mxCell id="7gWxnwFCbXSUsCtXN8eq-4" value="&lt;font style=&quot;font-size: 24px;&quot;&gt;&lt;b&gt;Sources&lt;/b&gt;&lt;/font&gt;" style="rounded=0;whiteSpace=wrap;html=1;strokeColor=none;" vertex="1" parent="1">
          <mxGeometry x="24" y="110" width="120" height="30" as="geometry" />
        </mxCell>
        <mxCell id="7gWxnwFCbXSUsCtXN8eq-5" value="" style="rounded=0;whiteSpace=wrap;html=1;strokeColor=light-dark(#757575, #ededed);dashed=1;" vertex="1" parent="1">
          <mxGeometry x="164" y="150" width="540" height="490" as="geometry" />
        </mxCell>
        <mxCell id="7gWxnwFCbXSUsCtXN8eq-6" value="&lt;font style=&quot;font-size: 24px;&quot;&gt;&lt;b&gt;Data warehouse&lt;/b&gt;&lt;/font&gt;" style="rounded=0;whiteSpace=wrap;html=1;strokeColor=none;" vertex="1" parent="1">
          <mxGeometry x="334" y="110" width="210" height="30" as="geometry" />
        </mxCell>
        <mxCell id="7gWxnwFCbXSUsCtXN8eq-7" value="" style="rounded=0;whiteSpace=wrap;html=1;strokeColor=light-dark(#757575, #ededed);dashed=1;" vertex="1" parent="1">
          <mxGeometry x="711.5" y="150" width="100" height="490" as="geometry" />
        </mxCell>
        <mxCell id="7gWxnwFCbXSUsCtXN8eq-10" value="&lt;font style=&quot;font-size: 24px;&quot;&gt;&lt;b&gt;Consume&lt;/b&gt;&lt;/font&gt;" style="rounded=0;whiteSpace=wrap;html=1;strokeColor=none;" vertex="1" parent="1">
          <mxGeometry x="711.5" y="110" width="105" height="30" as="geometry" />
        </mxCell>
        <mxCell id="7gWxnwFCbXSUsCtXN8eq-11" value="Bronce Layer" style="rounded=0;whiteSpace=wrap;html=1;fillColor=#ffe6cc;strokeColor=#d79b00;fontStyle=1" vertex="1" parent="1">
          <mxGeometry x="194" y="170" width="140" height="60" as="geometry" />
        </mxCell>
        <mxCell id="7gWxnwFCbXSUsCtXN8eq-12" value="" style="rounded=0;whiteSpace=wrap;html=1;fillColor=none;strokeColor=#d79b00;" vertex="1" parent="1">
          <mxGeometry x="194" y="240" width="140" height="390" as="geometry" />
        </mxCell>
        <mxCell id="7gWxnwFCbXSUsCtXN8eq-13" value="Silver Layer" style="rounded=0;whiteSpace=wrap;html=1;fillColor=#f5f5f5;strokeColor=#666666;fontColor=#333333;fontStyle=1" vertex="1" parent="1">
          <mxGeometry x="374" y="170" width="140" height="60" as="geometry" />
        </mxCell>
        <mxCell id="7gWxnwFCbXSUsCtXN8eq-14" value="" style="rounded=0;whiteSpace=wrap;html=1;fillColor=none;strokeColor=#666666;fontColor=#333333;" vertex="1" parent="1">
          <mxGeometry x="374" y="240" width="140" height="390" as="geometry" />
        </mxCell>
        <mxCell id="7gWxnwFCbXSUsCtXN8eq-15" value="Gold Layer" style="rounded=0;whiteSpace=wrap;html=1;fillColor=#fff2cc;strokeColor=#d6b656;fontStyle=1" vertex="1" parent="1">
          <mxGeometry x="544" y="170" width="140" height="60" as="geometry" />
        </mxCell>
        <mxCell id="7gWxnwFCbXSUsCtXN8eq-16" value="" style="rounded=0;whiteSpace=wrap;html=1;fillColor=none;strokeColor=#d6b656;" vertex="1" parent="1">
          <mxGeometry x="544" y="240" width="140" height="390" as="geometry" />
        </mxCell>
        <mxCell id="7gWxnwFCbXSUsCtXN8eq-18" value="" style="image;aspect=fixed;html=1;points=[];align=center;fontSize=12;image=img/lib/azure2/general/Folder_Blank.svg;" vertex="1" parent="1">
          <mxGeometry x="49.5" y="220" width="69" height="56.00000000000001" as="geometry" />
        </mxCell>
        <mxCell id="7gWxnwFCbXSUsCtXN8eq-19" value="" style="image;aspect=fixed;html=1;points=[];align=center;fontSize=12;image=img/lib/azure2/general/File.svg;" vertex="1" parent="1">
          <mxGeometry x="104" y="250" width="27.59" height="34" as="geometry" />
        </mxCell>
        <mxCell id="7gWxnwFCbXSUsCtXN8eq-20" value="&lt;b&gt;CRM&lt;/b&gt;" style="text;html=1;align=center;verticalAlign=middle;whiteSpace=wrap;rounded=0;" vertex="1" parent="1">
          <mxGeometry x="58.5" y="284" width="60" height="30" as="geometry" />
        </mxCell>
        <mxCell id="7gWxnwFCbXSUsCtXN8eq-21" value="" style="image;aspect=fixed;html=1;points=[];align=center;fontSize=12;image=img/lib/azure2/general/Folder_Blank.svg;" vertex="1" parent="1">
          <mxGeometry x="49.5" y="396" width="69" height="56.00000000000001" as="geometry" />
        </mxCell>
        <mxCell id="7gWxnwFCbXSUsCtXN8eq-22" value="" style="image;aspect=fixed;html=1;points=[];align=center;fontSize=12;image=img/lib/azure2/general/File.svg;" vertex="1" parent="1">
          <mxGeometry x="99.5" y="430" width="32.09" height="39.55" as="geometry" />
        </mxCell>
        <mxCell id="7gWxnwFCbXSUsCtXN8eq-23" value="&lt;b&gt;ERP&lt;/b&gt;" style="text;html=1;align=center;verticalAlign=middle;whiteSpace=wrap;rounded=0;" vertex="1" parent="1">
          <mxGeometry x="54" y="469.55" width="60" height="30" as="geometry" />
        </mxCell>
        <mxCell id="7gWxnwFCbXSUsCtXN8eq-27" value="" style="endArrow=none;html=1;rounded=0;" edge="1" parent="1">
          <mxGeometry width="50" height="50" relative="1" as="geometry">
            <mxPoint x="29" y="510" as="sourcePoint" />
            <mxPoint x="139" y="510" as="targetPoint" />
            <Array as="points">
              <mxPoint x="99" y="510" />
            </Array>
          </mxGeometry>
        </mxCell>
        <mxCell id="7gWxnwFCbXSUsCtXN8eq-28" value="&lt;font style=&quot;font-size: 10px;&quot;&gt;&lt;b style=&quot;&quot;&gt;Object type&lt;/b&gt;: CSV Files.&lt;br&gt;&amp;nbsp;&lt;b style=&quot;&quot;&gt;Interface&lt;/b&gt;: Files in Folders&lt;/font&gt;" style="text;html=1;align=center;verticalAlign=middle;whiteSpace=wrap;rounded=0;" vertex="1" parent="1">
          <mxGeometry x="24" y="520" width="120" height="30" as="geometry" />
        </mxCell>
        <mxCell id="7gWxnwFCbXSUsCtXN8eq-29" value="" style="html=1;verticalLabelPosition=bottom;align=center;labelBackgroundColor=#ffffff;verticalAlign=top;strokeWidth=2;strokeColor=#d79b00;shadow=0;dashed=0;shape=mxgraph.ios7.icons.data;fillColor=#ffe6cc;" vertex="1" parent="1">
          <mxGeometry x="243" y="250" width="42" height="46" as="geometry" />
        </mxCell>
        <mxCell id="7gWxnwFCbXSUsCtXN8eq-30" value="" style="html=1;verticalLabelPosition=bottom;align=center;labelBackgroundColor=#ffffff;verticalAlign=top;strokeWidth=2;strokeColor=#666666;shadow=0;dashed=0;shape=mxgraph.ios7.icons.data;fillColor=#f5f5f5;fontColor=#333333;" vertex="1" parent="1">
          <mxGeometry x="423" y="250" width="42" height="46" as="geometry" />
        </mxCell>
        <mxCell id="7gWxnwFCbXSUsCtXN8eq-31" value="" style="html=1;verticalLabelPosition=bottom;align=center;labelBackgroundColor=#ffffff;verticalAlign=top;strokeWidth=2;strokeColor=#d6b656;shadow=0;dashed=0;shape=mxgraph.ios7.icons.data;fillColor=#fff2cc;" vertex="1" parent="1">
          <mxGeometry x="593" y="250" width="42" height="46" as="geometry" />
        </mxCell>
        <mxCell id="7gWxnwFCbXSUsCtXN8eq-33" value="" style="shape=singleArrow;whiteSpace=wrap;html=1;fillColor=#dae8fc;strokeColor=#6c8ebf;" vertex="1" parent="1">
          <mxGeometry x="139" y="240" width="52.41" height="44" as="geometry" />
        </mxCell>
        <mxCell id="7gWxnwFCbXSUsCtXN8eq-34" value="" style="shape=singleArrow;whiteSpace=wrap;html=1;fillColor=#dae8fc;strokeColor=#6c8ebf;" vertex="1" parent="1">
          <mxGeometry x="329" y="240" width="53.41" height="44" as="geometry" />
        </mxCell>
        <mxCell id="7gWxnwFCbXSUsCtXN8eq-35" value="" style="shape=singleArrow;whiteSpace=wrap;html=1;fillColor=#dae8fc;strokeColor=#6c8ebf;" vertex="1" parent="1">
          <mxGeometry x="501.59" y="240" width="52.41" height="44" as="geometry" />
        </mxCell>
        <mxCell id="7gWxnwFCbXSUsCtXN8eq-36" value="" style="shape=singleArrow;whiteSpace=wrap;html=1;fillColor=#dae8fc;strokeColor=#6c8ebf;" vertex="1" parent="1">
          <mxGeometry x="689" y="240" width="52.41" height="44" as="geometry" />
        </mxCell>
        <mxCell id="7gWxnwFCbXSUsCtXN8eq-37" value="Raw Data" style="text;html=1;align=center;verticalAlign=middle;whiteSpace=wrap;rounded=0;" vertex="1" parent="1">
          <mxGeometry x="234" y="296" width="60" height="30" as="geometry" />
        </mxCell>
        <mxCell id="7gWxnwFCbXSUsCtXN8eq-38" value="Cleaned, Std Data" style="text;html=1;align=center;verticalAlign=middle;whiteSpace=wrap;rounded=0;" vertex="1" parent="1">
          <mxGeometry x="414" y="296" width="60" height="30" as="geometry" />
        </mxCell>
        <mxCell id="7gWxnwFCbXSUsCtXN8eq-39" value="Business-Ready Data" style="text;html=1;align=center;verticalAlign=middle;whiteSpace=wrap;rounded=0;" vertex="1" parent="1">
          <mxGeometry x="579" y="296" width="70" height="30" as="geometry" />
        </mxCell>
        <mxCell id="7gWxnwFCbXSUsCtXN8eq-40" value="" style="endArrow=none;html=1;rounded=0;" edge="1" parent="1">
          <mxGeometry width="50" height="50" relative="1" as="geometry">
            <mxPoint x="209" y="325" as="sourcePoint" />
            <mxPoint x="319" y="325" as="targetPoint" />
            <Array as="points">
              <mxPoint x="279" y="325" />
            </Array>
          </mxGeometry>
        </mxCell>
        <mxCell id="7gWxnwFCbXSUsCtXN8eq-41" value="" style="endArrow=none;html=1;rounded=0;" edge="1" parent="1">
          <mxGeometry width="50" height="50" relative="1" as="geometry">
            <mxPoint x="394" y="326" as="sourcePoint" />
            <mxPoint x="504" y="326" as="targetPoint" />
            <Array as="points">
              <mxPoint x="464" y="326" />
            </Array>
          </mxGeometry>
        </mxCell>
        <mxCell id="7gWxnwFCbXSUsCtXN8eq-42" value="" style="endArrow=none;html=1;rounded=0;" edge="1" parent="1">
          <mxGeometry width="50" height="50" relative="1" as="geometry">
            <mxPoint x="559" y="326" as="sourcePoint" />
            <mxPoint x="669" y="326" as="targetPoint" />
            <Array as="points">
              <mxPoint x="629" y="326" />
            </Array>
          </mxGeometry>
        </mxCell>
        <mxCell id="7gWxnwFCbXSUsCtXN8eq-43" value="&lt;div style=&quot;text-align: justify;&quot;&gt;&lt;b style=&quot;font-size: 10px; background-color: transparent; color: light-dark(rgb(0, 0, 0), rgb(255, 255, 255));&quot;&gt;Object type&lt;/b&gt;&lt;span style=&quot;font-size: 10px; background-color: transparent; color: light-dark(rgb(0, 0, 0), rgb(255, 255, 255));&quot;&gt;: Table.&lt;/span&gt;&lt;/div&gt;&lt;div&gt;&lt;div style=&quot;text-align: justify;&quot;&gt;&lt;span style=&quot;font-size: 10px;&quot;&gt;Load:&amp;nbsp;&lt;/span&gt;&lt;/div&gt;&lt;div style=&quot;text-align: justify;&quot;&gt;&lt;ul&gt;&lt;li&gt;&lt;span style=&quot;font-size: 10px;&quot;&gt;Batch Processing.&lt;/span&gt;&lt;/li&gt;&lt;li&gt;&lt;span style=&quot;font-size: 10px;&quot;&gt;Full Load.&lt;/span&gt;&lt;/li&gt;&lt;li&gt;&lt;span style=&quot;font-size: 10px;&quot;&gt;Truncate &amp;amp; Insert.&lt;/span&gt;&lt;/li&gt;&lt;/ul&gt;&lt;div&gt;&lt;span style=&quot;font-size: 10px;&quot;&gt;&lt;b&gt;No Transformations.&lt;/b&gt;&lt;/span&gt;&lt;/div&gt;&lt;div&gt;&lt;span style=&quot;font-size: 10px;&quot;&gt;&lt;br&gt;&lt;/span&gt;&lt;/div&gt;&lt;div&gt;&lt;span style=&quot;font-size: 10px;&quot;&gt;&lt;b&gt;Data Model&lt;/b&gt;: None (as-is)&lt;/span&gt;&lt;/div&gt;&lt;/div&gt;&lt;font style=&quot;font-size: 10px;&quot;&gt;&lt;div style=&quot;text-align: justify;&quot;&gt;&lt;br&gt;&lt;/div&gt;&lt;/font&gt;&lt;/div&gt;" style="text;html=1;align=center;verticalAlign=middle;whiteSpace=wrap;rounded=0;" vertex="1" parent="1">
          <mxGeometry x="204" y="334" width="120" height="202" as="geometry" />
        </mxCell>
        <mxCell id="7gWxnwFCbXSUsCtXN8eq-47" value="&lt;div style=&quot;text-align: justify;&quot;&gt;&lt;b style=&quot;background-color: transparent; color: light-dark(rgb(0, 0, 0), rgb(255, 255, 255)); font-size: 10px;&quot;&gt;Object type&lt;/b&gt;&lt;span style=&quot;background-color: transparent; color: light-dark(rgb(0, 0, 0), rgb(255, 255, 255)); font-size: 10px;&quot;&gt;: Table.&lt;/span&gt;&lt;/div&gt;&lt;div&gt;&lt;div style=&quot;text-align: justify;&quot;&gt;&lt;span style=&quot;font-size: 10px;&quot;&gt;Load:&amp;nbsp;&lt;/span&gt;&lt;/div&gt;&lt;div style=&quot;text-align: justify;&quot;&gt;&lt;ul&gt;&lt;li&gt;&lt;span style=&quot;font-size: 10px;&quot;&gt;Batch Processing.&lt;/span&gt;&lt;/li&gt;&lt;li&gt;&lt;span style=&quot;font-size: 10px;&quot;&gt;Full Load.&lt;/span&gt;&lt;/li&gt;&lt;li&gt;&lt;span style=&quot;font-size: 10px;&quot;&gt;Truncate &amp;amp; Insert.&lt;/span&gt;&lt;/li&gt;&lt;/ul&gt;&lt;div&gt;&lt;span style=&quot;font-size: 10px;&quot;&gt;&lt;b&gt;Transformations&lt;/b&gt;:&lt;/span&gt;&lt;/div&gt;&lt;div&gt;&lt;ul&gt;&lt;li&gt;&lt;span style=&quot;font-size: 10px;&quot;&gt;Data Cleansing.&lt;/span&gt;&lt;/li&gt;&lt;li&gt;&lt;span style=&quot;font-size: 10px;&quot;&gt;Data Standarization.&lt;/span&gt;&lt;/li&gt;&lt;li&gt;&lt;span style=&quot;font-size: 10px;&quot;&gt;Data Normalization.&lt;/span&gt;&lt;/li&gt;&lt;li&gt;&lt;span style=&quot;font-size: 10px;&quot;&gt;Derived Columns.&lt;/span&gt;&lt;/li&gt;&lt;li&gt;&lt;span style=&quot;font-size: 10px;&quot;&gt;Data Enrichment.&lt;/span&gt;&lt;/li&gt;&lt;/ul&gt;&lt;/div&gt;&lt;div&gt;&lt;span style=&quot;font-size: 10px;&quot;&gt;&lt;b&gt;Data Model&lt;/b&gt;: None (as-is)&lt;/span&gt;&lt;/div&gt;&lt;/div&gt;&lt;/div&gt;" style="text;html=1;align=center;verticalAlign=middle;whiteSpace=wrap;rounded=0;" vertex="1" parent="1">
          <mxGeometry x="394" y="316.55" width="120" height="336" as="geometry" />
        </mxCell>
        <mxCell id="7gWxnwFCbXSUsCtXN8eq-48" value="&lt;div style=&quot;text-align: justify;&quot;&gt;&lt;b style=&quot;font-size: 10px; background-color: transparent; color: light-dark(rgb(0, 0, 0), rgb(255, 255, 255));&quot;&gt;Object type&lt;/b&gt;&lt;span style=&quot;font-size: 10px; background-color: transparent; color: light-dark(rgb(0, 0, 0), rgb(255, 255, 255));&quot;&gt;: Views.&lt;/span&gt;&lt;/div&gt;&lt;div&gt;&lt;div style=&quot;text-align: justify;&quot;&gt;&lt;span style=&quot;font-size: 10px;&quot;&gt;No Load.&lt;/span&gt;&lt;/div&gt;&lt;div style=&quot;text-align: justify;&quot;&gt;&lt;span style=&quot;font-size: 10px;&quot;&gt;&lt;br&gt;&lt;/span&gt;&lt;/div&gt;&lt;div style=&quot;text-align: justify;&quot;&gt;&lt;div&gt;&lt;span style=&quot;font-size: 10px;&quot;&gt;&lt;b&gt;Transformations:&lt;/b&gt;&lt;/span&gt;&lt;/div&gt;&lt;div&gt;&lt;ul&gt;&lt;li&gt;&lt;span style=&quot;font-size: 10px;&quot;&gt;Data Integrations.&lt;/span&gt;&lt;/li&gt;&lt;li&gt;&lt;span style=&quot;font-size: 10px;&quot;&gt;Aggregations.&lt;/span&gt;&lt;/li&gt;&lt;li&gt;&lt;span style=&quot;font-size: 10px;&quot;&gt;Business Logics.&lt;/span&gt;&lt;/li&gt;&lt;/ul&gt;&lt;/div&gt;&lt;div&gt;&lt;span style=&quot;font-size: 10px;&quot;&gt;&lt;b&gt;Data Model&lt;/b&gt;:&lt;/span&gt;&lt;/div&gt;&lt;div&gt;&lt;ul&gt;&lt;li&gt;&lt;span style=&quot;font-size: 10px;&quot;&gt;Star Schema.&lt;/span&gt;&lt;/li&gt;&lt;li&gt;&lt;span style=&quot;font-size: 10px;&quot;&gt;Flat Table.&lt;/span&gt;&lt;/li&gt;&lt;li&gt;&lt;span style=&quot;font-size: 10px;&quot;&gt;Aggregated Table.&lt;/span&gt;&lt;/li&gt;&lt;/ul&gt;&lt;/div&gt;&lt;/div&gt;&lt;div style=&quot;text-align: justify;&quot;&gt;&lt;font style=&quot;font-size: 10px;&quot;&gt;&lt;br&gt;&lt;/font&gt;&lt;/div&gt;&lt;/div&gt;" style="text;html=1;align=center;verticalAlign=middle;whiteSpace=wrap;rounded=0;" vertex="1" parent="1">
          <mxGeometry x="554" y="334" width="120" height="260" as="geometry" />
        </mxCell>
        <mxCell id="7gWxnwFCbXSUsCtXN8eq-49" value="" style="image;aspect=fixed;html=1;points=[];align=center;fontSize=12;image=img/lib/azure2/analytics/Power_BI_Embedded.svg;" vertex="1" parent="1">
          <mxGeometry x="750.5" y="212" width="28.5" height="38" as="geometry" />
        </mxCell>
        <mxCell id="7gWxnwFCbXSUsCtXN8eq-50" value="" style="points=[];aspect=fixed;html=1;align=center;shadow=0;dashed=0;fillColor=#FF6A00;strokeColor=none;shape=mxgraph.alibaba_cloud.machine_learning;" vertex="1" parent="1">
          <mxGeometry x="739.85" y="310" width="49.8" height="50.099999999999994" as="geometry" />
        </mxCell>
        <mxCell id="7gWxnwFCbXSUsCtXN8eq-53" value="BI" style="text;html=1;align=center;verticalAlign=middle;whiteSpace=wrap;rounded=0;" vertex="1" parent="1">
          <mxGeometry x="739.85" y="252" width="60" height="30" as="geometry" />
        </mxCell>
        <mxCell id="7gWxnwFCbXSUsCtXN8eq-54" value="ML" style="text;html=1;align=center;verticalAlign=middle;whiteSpace=wrap;rounded=0;" vertex="1" parent="1">
          <mxGeometry x="734.75" y="366" width="60" height="30" as="geometry" />
        </mxCell>
        <mxCell id="7gWxnwFCbXSUsCtXN8eq-55" value="" style="image;sketch=0;aspect=fixed;html=1;points=[];align=center;fontSize=12;image=img/lib/mscae/dep/SQL_Server_Stretch_DB.svg;" vertex="1" parent="1">
          <mxGeometry x="299" y="110" width="30" height="30" as="geometry" />
        </mxCell>
      </root>
    </mxGraphModel>
  </diagram>
</mxfile>
